<mxfile host="app.diagrams.net" modified="2024-01-22T00:33:17.911Z" agent="Mozilla/5.0 (Macintosh; Intel Mac OS X 10_15_7) AppleWebKit/537.36 (KHTML, like Gecko) Chrome/120.0.0.0 Safari/537.36" version="22.1.18" etag="yISuDCsjC50xlu_ftc49" type="github">
  <diagram name="Page-1" id="Hiet5xKXUzERTkc-0pva">
    <mxGraphModel>
      <root>
        <mxCell id="0" />
        <mxCell id="1" parent="0" />
      </root>
    </mxGraphModel>
  </diagram>
</mxfile>
